<?xml version="1.0" encoding="utf-8"?>
<!-- Generator: Adobe Illustrator 27.5.0, SVG Export Plug-In . SVG Version: 6.00 Build 0)  -->
<svg version="1.1" xmlns="http://www.w3.org/2000/svg" xmlns:xlink="http://www.w3.org/1999/xlink" x="0px" y="0px"
	 viewBox="0 0 750 500" style="enable-background:new 0 0 750 500;" xml:space="preserve">
<g id="BACKGROUND">
	<rect x="0.002" style="fill:#FFFFFF;" width="749.996" height="500"/>
</g>
<g id="OBJECTS">
	<g>
		<defs>
			<rect id="SVGID_1_" x="0.002" width="749.996" height="500"/>
		</defs>
		<clipPath id="SVGID_00000021098925703479475730000012243158382297877683_">
			<use xlink:href="#SVGID_1_"  style="overflow:visible;"/>
		</clipPath>
		
			<path style="clip-path:url(#SVGID_00000021098925703479475730000012243158382297877683_);fill:none;stroke:#768292;stroke-miterlimit:10;" d="
			M599.619,506.722c-25.069-15.226-49.406-38.851-28.338-67.597c13.182-17.986,74.966-52.311,45.285-78.91
			c-6.681-5.987-15.452-8.947-23.367-13.171c-27.385-14.615-44.999-45.329-39.066-76.441c5.149-27,44.679-19.845,62.552-14.104
			c15.82,5.081,29.304,11.77,46.231,9.994c17.711-1.858,34.351-8.94,51.616-12.867c0.183-0.042,0.377-0.056,0.564-0.044
			c73.914,5.031-29.773,96.853,5.467,140.11c0.143,0.175,0.252,0.373,0.319,0.589c22.928,73.796,91.276,225.323-53.089,172.72
			c-0.388-0.141-0.729-0.413-0.948-0.762c-35.309-56.164,45.31-124.514,39.591-185.092c-0.005-0.056-0.012-0.111-0.021-0.167
			c-0.061-0.377-0.129-0.761-0.203-1.152c-5.99-31.89-54.195-24.497-50.286,7.715c2.025,16.688-3.738,36.251-25.393,71.631
			c-0.027,0.044-0.053,0.09-0.077,0.136c-22.253,42.914,29.739,91.205-17.921,126.629"/>
		<g style="clip-path:url(#SVGID_00000021098925703479475730000012243158382297877683_);">
			<path style="fill:#FFC869;" d="M233.108,584.236C302.037,521.8,277.145,410.599,308.045,331
				c8.504-19.006,67.572,111.024,84.269,126.656c26.839,56.554,3.333,123.404,31.949,179.966"/>
			<path style="fill:none;stroke:#FFFFFF;stroke-width:3;stroke-miterlimit:10;" d="M356.527,337.4
				c-23.374,33.611-72.425,33.624-99.391,61.586c35.333,16.871,125.194-36.96,134.458-11.244
				c-14.622,51.052-100.574,34.934-137.954,62.949c-16.147,51.876,172.636-6.351,189.045,11.441
				c-28.581,56.01-121.822,12.245-171.895,37.35c-81.502,37.108,125.482,22.549,147.727,22.756
				c-60.168,40.353-141.739,24.032-211.239,27.556"/>
		</g>
		<path style="clip-path:url(#SVGID_00000021098925703479475730000012243158382297877683_);fill:#FFC869;" d="M751.068,334.659
			c10.4-65.683-67.542-66.493-82.729-12.723c-4.126,32.83,6.433,70.21-22.878,94.972c-8.224,6.949-13.693,14.49-24.925,16.687
			c-14.788,2.893-30.048-0.279-44.919,2.638c-15.19,2.979-29.619,9.937-41.268,20.15c-7.059,6.189-13.37,14.07-14.542,23.385
			c-5.07,40.267,91.235,30.979,114.76,30.162c28.084-0.975,56.11-3.039,84.162-4.62c16.858-0.951,37.645-4.511,54.263-0.003
			c1.323,0.359,2.664,0.66,3.846,1.39c-0.008-0.017-0.008-107.489-0.008-107.489C758.696,379.653,752.137,361.029,751.068,334.659z"
			/>
		<g style="clip-path:url(#SVGID_00000021098925703479475730000012243158382297877683_);">
			<path style="fill:#D9B4AE;" d="M135.33,229.391c13.247,7.908,54.589,8.159,45.22-5.379c-1.977-2.857-5.089-4.697-8.481-5.45
				c-15.432-3.426-36.468-15.802-39.69,4.555C131.985,225.605,133.168,228.1,135.33,229.391z"/>
			<path style="fill:#D9B4AE;" d="M166.166,199.506c11.691,6.673,22.195-6.247,34.715-6.497c3.538-0.071,6.942-1.721,8.769-4.751
				c9.666-16.034-53.152-18.423-49.509,3.011C160.738,194.78,163.072,197.741,166.166,199.506z"/>
			<path style="fill:#D9B4AE;" d="M199.243,221.706c11.39,7.249,20.617,15.848,34.797,6.759c0.519-0.333,1.074-0.614,1.668-0.779
				c22.273-6.161-34.178-28.266-39.211-13.113C195.606,217.253,196.861,220.19,199.243,221.706z"/>
			<path style="fill:#D9B4AE;" d="M202.623,259.714c-2.176-7.075,7.588-11.424,11.378-5.066c0.033,0.056,0.066,0.111,0.098,0.165
				c5.332,9.183,24.639,6.388,22.471,19.15c-0.302,1.777-1.385,3.345-2.931,4.27C212.825,290.677,207.587,275.853,202.623,259.714z"
				/>
			<path style="fill:#D9B4AE;" d="M129.062,187.745c-4.591-3.791-6.526-10.694-7.22-17.328c-0.534-5.104,1.062-10.267,4.59-13.995
				c10.011-10.58,14.685,11.557,13.526,26.528C139.544,188.292,133.193,191.156,129.062,187.745z"/>
			<path style="fill:#D9B4AE;" d="M169.824,248.179c-16.065,7.867-37.931,19.07-4.122,23.06c0.415,0.049,0.835,0.147,1.233,0.274
				c12.715,4.036,14.11-9.275,11.728-19.22C177.734,248.412,173.408,246.424,169.824,248.179z"/>
		</g>
		<g style="clip-path:url(#SVGID_00000021098925703479475730000012243158382297877683_);">
			<path style="fill:#768292;" d="M186.844,378.875c-4.155-7.484-10.497-13.543-17.729-18.331
				c-9.975-6.604-21.517-10.012-31.311-16.771c-9.777-6.747-18.257-15.127-27.261-22.827c-12.429-10.628-27.33-23.723-44.55-24.516
				c-7.417-0.342-15.182,1.93-21.129,6.404c-6.836,5.142-9.291,12.845-11.84,20.752c-5.525,17.141-7.371,35.473-5.264,53.364
				c2.095,17.79,7.182,36.009,16.834,51.238c11.25,17.75,28.902,26.427,49.299,29.768c16.162,2.647,32.876,1.555,48.711-2.506
				c15.981-4.099,31.921-11.692,41.357-25.225c8.866-12.715,10.766-29.458,6.039-44.102
				C189.175,383.572,188.111,381.157,186.844,378.875z"/>
			<g>
				<path style="fill:none;stroke:#FFFFFF;stroke-width:3;stroke-miterlimit:10;" d="M160.422,379.651
					c-3.785-4.882-8.554-9.153-13.094-12.738c-10.005-7.9-20.468-15.694-30.839-22.99c-12.524-8.811-25.99-18.781-41.478-21.378
					c-22.076-3.701-26.784,19.522-28.714,36.371c-2.38,20.774,1.872,42.749,13.709,60.186c19.055,28.07,66.698,27.199,92.103,9.13
					c9.563-6.801,15.984-18.661,15.619-30.477C167.521,391.054,164.559,384.987,160.422,379.651z"/>
				<path style="fill:none;stroke:#FFFFFF;stroke-width:3;stroke-miterlimit:10;" d="M142.305,379.038
					c-1.33-1.629-2.847-3.156-4.519-4.55c-13.571-11.311-26.138-24.982-42.85-31.668c-4.444-1.778-9.269-3.062-13.994-2.301
					c-11.252,1.813-13.963,12.459-15.418,22.026c-1.339,8.801-0.917,17.881,1.226,26.521c4.506,18.17,17.35,30.978,36.579,32.259
					c13.259,0.884,29.148-1.52,38.748-11.492C151.337,400.215,149.684,388.072,142.305,379.038z"/>
				<path style="fill:none;stroke:#FFFFFF;stroke-width:3;stroke-miterlimit:10;" d="M125.232,377.952
					c-5.637-7.569-15.963-14.073-21.865-16.459c-3.439-1.39-7.229-2.235-10.867-1.508c-3.939,0.787-7.45,3.488-9.221,7.094
					c-5.238,10.666,3.275,23.026,11.377,29.54c9.307,7.483,22.218,8.499,30.956-0.533
					C131.159,390.351,129.609,383.83,125.232,377.952z"/>
			</g>
		</g>
		<path style="clip-path:url(#SVGID_00000021098925703479475730000012243158382297877683_);fill:#D9B4AE;" d="M225.063,519.506
			c3.288-43.483,74.792-48.419,106.736-64.314c70.922-19.59,53.335-140.112,143.474-126.263
			c21.946,1.166,31.818,19.069,31.069,40.434c-9.277,39.031-64.939,40.997-90.115,68.569
			C375.004,531.98,311.442,476.5,257.58,543.469C219.325,692.618,116.132,604.665,225.063,519.506z"/>
		
			<path style="clip-path:url(#SVGID_00000021098925703479475730000012243158382297877683_);fill:none;stroke:#768292;stroke-width:16;stroke-miterlimit:10;" d="
			M565.305,547.349c-9.545-54.636,68.487-96.94,119.415-92.996c85.878-41.764,21.249-166.386,74.285-230.323
			c27.858-29.865,60.663-54.822,66.109-97.962c10.983-43.878-41.592-24.972-60.452-10.66
			C566.373,287.411,655.48-67.965,446.01-15.38"/>
		<g style="clip-path:url(#SVGID_00000021098925703479475730000012243158382297877683_);">
			<path style="fill:#768292;" d="M605.451,40.734c33.959,25.022,18.961,106.659,80.273,90.407
				c44.91-18.533,18.733-50.089,91.574-75.282C804.787,6.18,736.025,1.34,704.485,8.825C672.725,18.88,611.087-3.965,605.451,40.734
				z"/>
			<path style="fill:none;stroke:#FFFFFF;stroke-width:3;stroke-miterlimit:10;" d="M599.041,41.147
				c9.819,5.458,16.373,13.58,23.315,22.154c12.457,15.389,24.1,35.248,44.237,41.141c0.476,0.139,0.962,0.257,1.45,0.347
				c11.172,2.064,22.418-1.103,33.488-2.347c12.896-1.45,21.766,0.968,31.451,9.512c-3.699-2.936-4.871-7.936-7.042-12.129
				c-4.446-8.587-13.497-14.039-22.876-16.391c-13.042-3.27-27.357,0.928-39.683-4.891c-11.539-5.447-16.124-17.694-23.427-27.258
				c-7.142-9.353-15.79-17.381-27.041-21.471c-0.84-0.305-1.665-0.668-2.435-1.121c-2.932-1.725-17.76-10.878-6.421-10.476
				c11.729,0.416,24.268,5.758,34.932,10.172c9.482,3.924,18.926,8.281,27.222,14.395c7.838,5.776,12.607,15.264,21.619,19.53
				c4.163,1.971,9.187,2.533,13.363,0.59c3.247-1.511,5.742-4.451,6.954-7.821c3.239-9.006-1.555-15.391-9.283-19.089
				c-10.829-5.182-17.951-14.164-24.237-24.07c-1.98-3.121-5.53-7.848-4.906-11.96c2.397-15.768,52.145,14.298,58.435,18.189
				c7.358,4.551,14.346,9.657,21.258,14.854c12.951,9.739,27.78,21.269,35.233,36.075"/>
		</g>
		<path style="clip-path:url(#SVGID_00000021098925703479475730000012243158382297877683_);fill:#D9B4AE;" d="M-18.221,246.566
			c21.321-1.826,37.484-20.92,44.828-41.02c7.344-20.1,8.316-41.928,13.601-62.665c5.285-20.737,16.566-41.926,36.377-50.019
			c17.618-7.197,38.544-2.621,55.797-10.655c12.793-5.957,21.589-17.927,32.699-26.629c14.113-11.053,31.625-16.593,47.819-24.282
			c16.193-7.689,32.261-18.861,38.265-35.752c6.004-16.891-3.249-39.698-21.048-41.831c-60.816-7.289-124.188-9.074-184.66,0.663
			c-29.861,4.808-60.556,12.284-83.968,31.434c-35.392,28.949-46.778,79.615-40.07,124.843
			C-71.873,155.883-39.796,206.253-18.221,246.566z"/>
		<path style="clip-path:url(#SVGID_00000021098925703479475730000012243158382297877683_);fill:#FFC869;" d="M334.391,36.673
			c-3.372-5.898-5.203-12.665-9.251-18.121C317.292,7.972,301.856,4.611,289.509,9.2c-12.348,4.589-21.427,15.967-25.268,28.567
			c-5.209,17.091-1.187,36.703,10.329,50.364s30.165,20.943,47.891,18.7c12.046-1.524,24.077-7.108,35.866-4.203
			c8.336,2.054,15.124,8.126,20.477,14.837c5.353,6.712,9.636,14.24,15.18,20.794c5.544,6.555,12.744,12.264,21.226,13.59
			c8.482,1.327,18.204-2.921,20.967-11.049c2.232-6.567-0.378-13.802-3.918-19.766c-3.54-5.964-8.081-11.459-10.215-18.058
			c-3.034-9.382-0.775-19.617,2.296-28.987c3.07-9.37,6.981-18.697,7.249-28.554c0.269-9.856-4.167-20.67-13.288-24.416
			c-11.482-4.717-23.95,3.339-33.523,11.241C371.352,43.343,346.176,57.284,334.391,36.673z"/>
		<path style="clip-path:url(#SVGID_00000021098925703479475730000012243158382297877683_);fill:#768292;" d="M429.07,97.512
			c-8.933,9.677-17.865,19.355-26.798,29.032c-2.237,2.423-4.504,4.89-5.977,7.84c-4.493,8.995-0.359,20.278,6.692,27.445
			c10.6,10.775,27.168,14.669,41.912,11.339c14.743-3.33,27.534-13.285,35.903-25.872c13.767-20.703,15.151-48.912,4.389-71.209
			c-5.751-11.914-12.588-16.12-24.181-8.331C448.909,75.888,438.896,86.867,429.07,97.512z"/>
	</g>
</g>
</svg>
