<svg xmlns="http://www.w3.org/2000/svg" viewBox="0 0 2600 3000" width="2600" height="3000"><g transform="translate(374.0 604.0) rotate(0.0 181.0 143.0) scale(1.9999116061168567 1.9929758055524587)"><svg width="181.008" height="143.504" viewBox="0 0 181.008 143.504"><path d="M84.909 6.5c43.305 0 78.41 26.687 78.41 59.608 0 10.334-3.463 20.053-9.549 28.526l.005-.004 20.733 42.375-52.209-18.49c-11.114 4.592-23.851 7.201-37.39 7.201-43.304 0-78.409-26.687-78.409-59.608C6.5 33.188 41.605 6.5 84.909 6.5z" fill="#fff"/><path d="M174.507 143.505a6.479 6.479 0 0 1-2.169-.374l-49.908-17.675c-11.589 4.427-24.504 6.759-37.521 6.759C38.09 132.215 0 102.56 0 66.107S38.09 0 84.909 0s84.91 29.656 84.91 66.107c0 10.084-2.948 20.043-8.561 29.026l19.089 39.015a6.5 6.5 0 0 1-5.84 9.357zM122.3 112.014c.733 0 1.467.124 2.17.373l37.204 13.176-13.628-27.854a6.497 6.497 0 0 1 .445-6.868c5.526-7.694 8.328-16.016 8.328-24.734C156.819 36.823 124.56 13 84.909 13S13 36.824 13 66.107s32.258 53.108 71.909 53.108c12.216 0 24.287-2.32 34.908-6.708a6.502 6.502 0 0 1 2.482-.493z"/></svg></g><g transform="translate(1548.0 1336.0) rotate(0.0 450.0 774.0) scale(1.997181754635126 1.9979194791986639)"><svg width="450.635" height="774.806" viewBox="0 0 450.635 774.806"><rect height="30.316" rx="14.682" width="307.155" x="71.74" y="379.445"/><path d="M364.214 416.261H86.422c-11.68 0-21.182-9.502-21.182-21.182v-.953c0-11.68 9.502-21.182 21.182-21.182h277.792c11.68 0 21.182 9.502 21.182 21.182v.953c0 11.68-9.502 21.182-21.182 21.182zM86.422 385.945c-4.511 0-8.182 3.67-8.182 8.182v.953c0 4.511 3.67 8.182 8.182 8.182h277.792c4.511 0 8.182-3.67 8.182-8.182v-.953c0-4.511-3.67-8.182-8.182-8.182z"/><path d="M444.066 774.807a6.564 6.564 0 0 1-6.456-5.435L372.431 395.73a6.561 6.561 0 0 1 12.927-2.255l65.179 373.642a6.56 6.56 0 0 1-6.471 7.69zm-437.497 0a6.561 6.561 0 0 1-6.471-7.69l65.179-373.642a6.561 6.561 0 0 1 12.927 2.255L13.025 769.373a6.564 6.564 0 0 1-6.456 5.435z"/><path d="M378.903 401.165a6.56 6.56 0 0 1-6.478-7.649L437.604 5.474a6.557 6.557 0 0 1 7.557-5.383 6.56 6.56 0 0 1 5.383 7.557L385.365 395.69a6.561 6.561 0 0 1-6.462 5.475zm-236.339 0a6.56 6.56 0 0 1-6.478-7.649L201.265 5.474a6.557 6.557 0 0 1 7.557-5.383 6.56 6.56 0 0 1 5.383 7.557L149.026 395.69a6.561 6.561 0 0 1-6.462 5.475z"/><path d="M408.705 217.128H172.367L207.735 6.561h236.339z"/><path d="M408.705 223.628H172.366a6.5 6.5 0 0 1-6.41-7.577L201.325 5.484a6.5 6.5 0 0 1 6.41-5.423h236.338a6.5 6.5 0 0 1 6.41 7.577l-35.369 210.567a6.5 6.5 0 0 1-6.41 5.423zm-228.656-13h223.157l33.185-197.567H213.234z"/></svg></g><g transform="translate(318.0 1488.0) rotate(0.0 130.0 67.0) scale(1.7867819370090645 1.7843826568658783)"><svg width="145.513" height="75.096" viewBox="0 0 145.513 75.096"><path d="M18.191 68.596c-14.653 0-18.987-24.799 7.579-42.675C52.549 7.901 110.966-.578 126.823 13.684c16.674 14.997 15.663 54.913.505 54.913H18.191z"/><path d="M127.328 75.096H18.192c-8.129 0-14.712-5.023-17.18-13.109-3.432-11.249 1.77-28.431 21.129-41.458 13.63-9.172 35.093-16.378 57.414-19.278 11.34-1.473 39.071-3.681 51.615 7.6 13.75 12.367 17.519 38.569 11.702 53.735-3.049 7.95-8.714 12.51-15.543 12.51zM97.752 12.962c-21.454 0-50.641 6.434-68.353 18.352C15.63 40.58 11.478 51.743 13.446 58.193c.791 2.59 2.387 3.903 4.746 3.903h109.137c1.677 0 3.03-3.188 3.405-4.166 4.106-10.706 1.103-30.996-8.257-39.414-4.169-3.75-13.364-5.555-24.724-5.555z"/></svg></g><g transform="translate(308.0 118.0) rotate(0.0 985.0 1383.0) scale(1.996778800493417 1.9980222036176771)"><svg width="986.589" height="1384.369" viewBox="0 0 986.589 1384.369"><path d="M211.52 698.89c-7.074 0-20.211-5.811-31.326-12.767 0 0-40.421-20.58-82.863-12.496s-98.599 45.558-89.937 60.632c7.074 12.309 54.568-31.451 85.816-24.253 10.427 2.402-33.269 20.716-24.174 33.853 5.706 8.241 83.447-9.075 83.447-9.075s47.164 12.691 64.469 12.691 1.642-48.584-5.432-48.584z" fill="#fff"/><path d="M808.362 136.816c25.389-28.042 70.56-40.392 105.726-4.168 50.4 51.916 43.2 234.568-1.516 289.516-44.716 54.947-183.032 68.211-192.505-23.116s55.403-225.904 88.295-262.232z" fill="#6e6e6e"/><path d="M807.398 472.057c-12.917 0-25.304-1.68-36.601-5.05-33.416-9.967-53.729-33.864-57.196-67.289-4.244-40.916 5.935-95.874 28.662-154.751 18.043-46.744 42.67-91.959 61.28-112.514 16.169-17.858 37.996-28.319 59.882-28.7 20.356-.351 39.507 8.071 55.326 24.367 24.262 24.991 37.998 80.418 36.746 148.269-1.204 65.213-15.72 122.643-37.884 149.877-14.442 17.747-37.967 31.828-66.242 39.649-14.792 4.091-29.706 6.143-43.974 6.143zm5.782-330.878c-31.058 34.302-96 167.043-86.647 257.198 3.704 35.704 28.137 50.254 47.981 56.173 44.293 13.211 106.448-3.841 133.017-36.489 20.107-24.708 33.834-80.413 34.969-141.912 1.172-63.5-11.501-116.751-33.075-138.973-13.253-13.652-29.097-20.707-45.773-20.424-18.038.314-36.907 9.447-50.472 24.428z"/><path d="M449.12 1169.448c-.758 2.274-21.979 73.516-21.979 73.516l-65.05-7.228 23.427-78.732 63.601 12.444z" fill="#fff"/><path d="M427.145 1249.464a6.51 6.51 0 0 1-.722-.04l-65.05-7.228a6.505 6.505 0 0 1-5.513-8.315l23.428-78.731a6.502 6.502 0 0 1 7.478-4.525l63.601 12.443a6.5 6.5 0 0 1 4.921 8.426c-.645 1.972-13.461 44.929-21.919 73.324a6.501 6.501 0 0 1-6.225 4.645zm-56.606-19.33 51.922 5.769c4.031-13.527 13.951-46.809 18.353-61.458l-50.749-9.929z"/><path d="m692.404 1216.437 15.916 90.947h-68.969l-13.602-84.471z" fill="#fff"/><path d="M708.319 1313.884h-68.968a6.5 6.5 0 0 1-6.417-5.467l-13.602-84.472a6.503 6.503 0 0 1 5.789-7.503l66.655-6.476a6.507 6.507 0 0 1 7.031 5.349l15.916 90.947a6.5 6.5 0 0 1-6.403 7.621zm-63.431-13h55.695l-13.544-77.396-53.772 5.224 11.622 72.171z"/><path d="M520.362 942.079c7.954 48.445 57.6 324.379 57.6 324.379l161.505-20.649s-59.477-307.616-66.391-344.127c-13.477-71.172-169.388-61.16-152.714 40.397z" fill="#FFC869"/><path d="M577.955 1272.959a6.502 6.502 0 0 1-6.391-5.35c-.497-2.76-49.746-276.537-57.617-324.477-4.112-25.044 1.422-47.169 16.004-63.984 12.448-14.355 31.267-24.375 52.99-28.214 41.445-7.325 88.883 9.201 96.521 49.539 6.832 36.082 65.791 341.027 66.386 344.103a6.499 6.499 0 0 1-5.558 7.682l-161.505 20.649a6.497 6.497 0 0 1-.831.053zm-51.179-331.933c7.199 43.845 49.148 277.359 56.49 318.201l148.504-18.987c-8.802-45.529-58.817-304.271-65.081-337.349-6.143-32.439-46.253-45.381-81.486-39.156-33.409 5.904-66.299 29.316-58.428 77.291z"/><path d="M764.932 395.535c22.417-18.598 45.283-36.602 61.62-42.422 16.337-5.819 66.963-14.223 78.063 50.102 12.947 75.032 68.353 413.03 68.353 413.03l-287.384 34.128s-44.33-246.316-52.86-297.853 86.409-118.989 132.209-156.986z" fill="#768292"/><path d="M971.166 804.978c-89.777-7.6-168.11 24.933-168.11 24.933s-158.372-25.425-234.92-27.699c-76.547-2.274-130.815 40.94-145.216 83.382-14.4 42.442-98.854 294.464-98.854 294.464l166 36.379s53.79-171.284 63.642-201.6 30.617-50.014 57.901-45.466c28.022 4.67 126.225 35.19 241.501 35.19 112.926 0 132.598-97.345 125.777-148.882-1.45-10.953-4.235-29.029-7.722-50.702z" fill="#FFC869"/><path d="M674.858 418.625s-70.37 24.759-96.897 46.895c-26.526 22.136-58.728 94.362-77.305 126.411-29.728 51.287-73.516 73.516-96.993 82.902-28.802 11.515-73.281 14.109-97.533 14.109H185.372l13.48 63.085h506.667l-30.661-333.401z" fill="#768292"/><path d="M833.183 107.37c11.511-18.681 49.23-10.675 38.463 20.351s-27.619 52.049-49.137 48.468c-20.716-3.448-4.597-44.037 10.674-68.819z" fill="#FFC869"/><path d="M827.351 183.098c-1.945 0-3.915-.165-5.91-.497-6.153-1.024-10.716-4.447-13.195-9.898-9.475-20.833 16.418-63.9 19.402-68.742 8.375-13.591 25.74-15.846 37.688-10.174 10.362 4.918 19.074 16.976 12.449 36.066-12.013 34.618-29.764 53.246-50.435 53.246zm11.365-72.318c-14.309 23.221-22.495 48.057-18.636 56.541.554 1.217 1.36 2.101 3.496 2.457 22.693 3.771 36.882-29.643 41.929-44.187 3.331-9.598 1.292-16.722-5.742-20.061-6.654-3.157-16.701-1.801-21.047 5.25z"/><path d="M572.677 96.774c-11.389 8.084-80.105 63.663-58.884 132.379s72.253 90.442 110.653 87.916-51.769-220.295-51.769-220.295z" fill="#6e6e6e"/><path d="M618.633 323.758c-39.376 0-89.805-23.892-111.051-92.687-9.431-30.538-3.191-63.213 18.046-94.495 14.871-21.905 34.206-38.657 43.287-45.103a6.5 6.5 0 0 1 9.768 2.814c.194.468 19.547 47.316 36.352 97.243 31.224 92.767 27.238 115.715 21.523 124.906-2.692 4.331-6.733 6.792-11.685 7.118a95.375 95.375 0 0 1-6.239.204zm-48.719-216.515c-18.276 15.347-67.475 63.117-49.91 119.992 19.142 61.983 63.855 83.521 98.621 83.523 1.829 0 3.626-.06 5.395-.176.564-.037.947-.124 1.499-1.01 3.03-4.873 6.873-25.726-22.804-113.895-12.584-37.389-26.605-73.024-32.8-88.435z"/><path d="M833.568 176.189c15.341-68.552-19.011-154.121-93.417-167.606C664.362-5.152 558.646 50.839 555.225 124.69c-1.516 32.716 9.289 53.676 9.289 53.676l269.055-2.176z" fill="#6e6e6e"/><path d="M804.518 168.4c-46.556-49.016-120.087-59.28-136.721-58.072-22.824 1.658-42.846 8.172-56.228 20.488-21.886 20.143-45.226 45.373-45.226 45.373 17.767 30.089 15.991 55.491 16.093 105.135.143 70.44 69.616 91.482 99.473 92.085 3.844.078 15.284 32.693 15.284 32.693l-15.399 9.998s-3.421 107.621 37.339 107.621 50.83-66.947 44.555-133.995c-1.94-8.853-5.934-26.315-10.444-41.626 20.935-3.153 62.317-58.825 56.709-107.545 58.516-6.32 33.674-86.067-5.434-72.155z" fill="#fff"/><path d="M699.1 418.425a6.502 6.502 0 0 1-6.198-4.549c-4.238-13.451-10.291-29.353-13.365-34.046-15.906-.782-40.816-6.606-62.123-20.873-18.875-12.639-41.394-36.365-41.478-77.619-.009-4.428-.003-8.663.002-12.726.057-40.778.088-63.241-15.192-89.117a6.5 6.5 0 0 1 11.194-6.61c17.09 28.943 17.056 54.088 16.998 95.746-.005 4.049-.011 8.27-.002 12.682.058 28.526 12.073 51.016 35.71 66.844 20 13.392 43.418 18.474 57.394 18.756 5.8.117 9.643 5.604 16.45 23.481 3.687 9.683 6.685 19.179 6.811 19.579a6.499 6.499 0 0 1-6.202 8.454zm-17.322-38.517h.01z"/><ellipse cx="717.076" cy="212.033" rx="11.873" ry="14.454" transform="matrix(.99218237 -.12479643 .12479643 .99218237 -20.855 91.147)"/><ellipse cx="611.569" cy="225.304" rx="11.873" ry="14.454" transform="matrix(.99218237 -.12479643 .12479643 .99218237 -23.336 78.083)"/><path d="M666.971 296.915c-7.431 0-13.974-2.569-18.099-7.257a6.499 6.499 0 0 1 .585-9.173 6.499 6.499 0 0 1 9.173.585c2.087 2.371 6.51 3.365 11.543 2.594 5.828-.893 10.968-3.927 12.5-7.378a6.5 6.5 0 1 1 11.883 5.273c-3.383 7.625-11.971 13.356-22.413 14.956a34.08 34.08 0 0 1-5.172.401zm-134.106 18.066a6.502 6.502 0 0 1-6.188-4.518c-12.086-37.702-7.911-73.07 12.765-108.124 18.554-31.457 48.52-59.094 75.152-82.53a6.5 6.5 0 0 1 8.588 9.759c-57.89 50.943-107.885 102.809-84.125 176.925a6.5 6.5 0 0 1-6.192 8.486zm232.06 87.055a6.502 6.502 0 0 1-6.359-5.188c-.053-.256-5.356-25.858-11.559-46.912a6.502 6.502 0 0 1 5.266-8.264c7.2-1.085 21.46-13.231 33.705-33.606 13.441-22.365 19.825-46.701 17.515-66.769a6.5 6.5 0 0 1 5.759-7.205c14.129-1.526 23.558-7.91 27.266-18.46 4.062-11.559.395-26.981-8.531-35.873-4.322-4.306-11.525-8.71-21.292-5.235a6.501 6.501 0 0 1-6.892-1.647c-45.129-47.513-116.553-56.385-131.861-56.05-3.556.065-6.564-2.762-6.646-6.351s2.762-6.564 6.351-6.646c8.265-.176 31.294 1.833 59.289 10.823 22.474 7.217 54.148 21.075 79.522 46.431 11.067-2.478 22.063.859 30.703 9.466 12.438 12.39 17.324 33.163 11.621 49.393-2.866 8.155-10.748 21.717-31.9 26.104.836 21.491-6.205 46.16-19.763 68.718-11.033 18.357-24.432 32.196-35.917 37.545 5.555 20 9.893 40.945 10.093 41.914a6.5 6.5 0 0 1-6.373 7.814z"/><path d="M833.574 182.691a6.5 6.5 0 0 1-6.349-7.921c8.56-38.248.773-81.763-20.321-113.564-16.73-25.222-40.214-41.207-67.912-46.227-43.229-7.835-98.007 7.726-136.308 38.722-25.641 20.75-40.188 46.032-40.962 71.188-.11 3.589-3.128 6.418-6.697 6.297a6.5 6.5 0 0 1-6.297-6.697c.893-28.998 17.15-57.727 45.778-80.895C635.577 10.356 694.574-6.284 741.311 2.186c31.265 5.667 57.693 23.59 76.427 51.833 22.983 34.649 31.479 82.005 22.174 123.589a6.503 6.503 0 0 1-6.337 5.082z"/><path d="M833.574 182.691a6.5 6.5 0 0 1-6.349-7.921c8.56-38.248.773-81.763-20.321-113.564-16.73-25.222-40.214-41.207-67.912-46.227-43.229-7.835-98.007 7.726-136.308 38.722-25.641 20.75-40.188 46.032-40.962 71.188-.11 3.589-3.128 6.418-6.697 6.297a6.5 6.5 0 0 1-6.297-6.697c.893-28.998 17.15-57.727 45.778-80.895C635.577 10.356 694.574-6.284 741.311 2.186c31.265 5.667 57.693 23.59 76.427 51.833 22.983 34.649 31.479 82.005 22.174 123.589a6.503 6.503 0 0 1-6.337 5.082z"/><path d="M920.53 380.479c-23.495-54.568-97.768-40.926-128.842 0l34.863 153.853s-22.902 125.112-56.842 147.032c-36.379 23.495-179.621 14.841-179.621 14.841l-8.203 63.094c43.243 6.489 151.232 14.853 230.787-.145 92.463-17.432 131.353-324.105 107.858-378.674z" fill="#768292"/><path d="M512.884 631.88c54.273 5.719 85.351 64.324 85.351 64.324l-8.203 63.094c-28.934 4.297-63.795-58.23-72.133-55.198s-48.506 18.189-48.506 18.189c-12.126 4.926-17.811-19.85-6.821-46.114 10.989-26.265 37.547-45.64 50.312-44.295z" fill="#fff"/><path d="M708.278 774.034c-62.917 0-119.5-7.148-135.445-11.354-11.648-3.072-24.729-18.624-37.378-33.663-5.718-6.798-13.383-15.911-16.887-18.239-10.745 3.958-46.5 17.45-46.88 17.593a6.5 6.5 0 1 1-4.589-12.163c1.642-.619 40.3-15.206 48.58-18.217 8.169-2.967 15.826 6.133 29.726 22.658 9.74 11.58 23.079 27.438 30.745 29.46 24.211 6.386 144.902 19.702 235.319 2.656 18.546-3.496 36.19-20.756 52.44-51.3 22.216-41.757 40.581-107.315 50.385-179.863 8.428-62.366 8.538-119.341.266-138.552-9.929-23.06-28.398-29.9-42.144-31.577-26.802-3.271-58.577 10.583-75.551 32.938a6.5 6.5 0 1 1-10.353-7.861c19.907-26.218 55.885-41.838 87.479-37.98 24.21 2.954 42.858 16.925 52.509 39.341 9.4 21.832 9.665 78.918.676 145.434-10.002 74.016-28.879 141.164-51.791 184.228-18.197 34.202-38.891 53.706-61.509 57.97-33.162 6.251-70.377 8.493-105.598 8.493z"/><path d="M652.908 704.283c-29.427 0-52.8-1.446-55.088-1.592a6.497 6.497 0 0 1-5.294-3.381c-.33-.603-33.753-60.773-83.812-61.468a6.5 6.5 0 0 1 .089-13h.092c51.128.71 85.095 51.579 93.218 65.084 39.523 2.266 136.557 3.745 164.071-14.024 25.906-16.731 47.745-108.712 53.975-142.742a6.498 6.498 0 0 1 7.564-5.223 6.5 6.5 0 0 1 5.223 7.564c-.058.316-5.901 32.003-15.849 65.953-13.68 46.685-28.436 75.407-43.86 85.369-22.333 14.424-77.687 17.459-120.327 17.459zm-191.099-17.176a6.5 6.5 0 0 1-1.591-12.802c2.14-.542 52.691-13.214 75.924-7.596a6.5 6.5 0 1 1-3.056 12.636c-16.713-4.042-55.963 4.088-69.676 7.562a6.504 6.504 0 0 1-1.601.201z"/><path d="M590.041 765.799a6.5 6.5 0 0 1-6.454-7.339l8.203-63.094a6.5 6.5 0 0 1 12.892 1.676l-8.203 63.094a6.502 6.502 0 0 1-6.438 5.663zm-89.389-167.366a6.465 6.465 0 0 1-2.841-.658 6.499 6.499 0 0 1-2.998-8.689c2.098-4.309 51.702-105.789 78.984-128.556 27.115-22.627 95.986-47.009 98.904-48.036a6.5 6.5 0 0 1 8.657 6.123c0 .691.385 69.456 24.309 92.966 5.002 4.916 10.543 7.253 16.949 7.155 5.691-.09 10.589-2.422 14.975-7.129 21.063-22.605 22.192-91.196 20.85-115.717a6.5 6.5 0 0 1 12.981-.714c.21 3.824 4.821 94.011-24.315 125.289-6.829 7.331-14.999 11.122-24.285 11.27-9.899.168-18.767-3.505-26.276-10.889-22.221-21.848-26.926-72.165-27.921-93.008-19.26 7.239-66.488 25.973-86.499 42.672-25.166 21-75.124 123.236-75.626 124.266a6.5 6.5 0 0 1-5.849 3.656z"/><path d="M490.071 1222.938c-.461 0-.929-.049-1.396-.152l-166-36.379a6.502 6.502 0 0 1-4.772-8.414c.844-2.52 84.623-252.519 98.862-294.487 15.406-45.406 72.421-90.146 151.564-87.791 76.088 2.26 234.169 27.523 235.757 27.778a6.5 6.5 0 0 1-2.06 12.836c-1.58-.254-158.834-25.384-234.082-27.62-43.077-1.273-73.935 12.298-92.237 23.914-22.636 14.365-39.632 34.434-46.63 55.06-12.896 38.01-82.897 246.852-96.545 287.576l153.117 33.556c9.415-29.967 53.147-169.116 61.88-195.986 11.548-35.534 36.509-54.644 65.151-49.869 6.134 1.022 15.377 3.208 27.081 5.975 43.051 10.179 123.186 29.126 213.351 29.126 39.257 0 69.784-12.121 90.733-36.025 27.295-31.146 32.466-76.3 28.601-105.503-6.726-50.819-42.796-258.365-43.16-260.455a6.5 6.5 0 0 1 12.808-2.228c.364 2.093 36.48 209.9 43.24 260.977 4.222 31.898-1.55 81.36-31.711 115.777-23.526 26.846-57.343 40.458-100.51 40.458-91.682 0-172.776-19.174-216.343-29.475-11.465-2.711-20.522-4.853-26.226-5.803-22.156-3.691-41.094 11.657-50.651 41.064-9.73 29.938-63.085 199.826-63.623 201.538a6.502 6.502 0 0 1-6.197 4.554zm218.249 84.446s28.042 70.484-12.884 70.484H548.404c-27.284 0-37.895-21.979-12.126-35.242 25.768-13.263 103.074-35.242 103.074-35.242z"/><path d="M695.435 1384.369H548.404c-16.83 0-30.02-7.766-32.819-19.324-2.573-10.622 4.051-21.163 17.718-28.198 26.044-13.405 101.089-34.811 104.271-35.715a6.523 6.523 0 0 1 1.778-.248h68.968a6.503 6.503 0 0 1 6.04 4.097c1.911 4.802 18.258 47.52 4.131 68.344-3.417 5.038-10.191 11.043-23.055 11.043zm-55.172-70.485c-8.541 2.453-77.551 22.447-101.011 34.521-7.855 4.043-12.083 9.246-11.033 13.579 1.129 4.663 8.426 9.384 20.185 9.384h147.031c7.774 0 10.741-3.048 12.297-5.341 7.774-11.46.653-38.911-3.938-52.143h-63.53zm-278.172-78.148s-97.14 42.091-113.814 58.765-8.337 39.411 34.863 34.105c43.2-5.305 122.426-25.619 139.453-30.316 11.552-3.186 4.547-55.326 4.547-55.326l-65.05-7.228z"/><path d="M271.378 1335.867c-17.86 0-30.514-5.49-35.498-15.707-4.541-9.311-1.552-20.904 7.801-30.257 17.057-17.057 105.767-55.774 115.825-60.133a6.478 6.478 0 0 1 3.302-.496l65.05 7.228a6.5 6.5 0 0 1 5.724 5.595c.074.546 1.803 13.548 2.115 27.185.512 22.383-2.89 32.932-11.375 35.273-14.255 3.932-95.999 25.049-140.389 30.501-4.42.542-8.616.81-12.556.81zm91.715-93.48c-27.859 12.134-97.51 44-110.22 56.709-5.309 5.309-7.343 11.196-5.309 15.365 2.662 5.457 13.2 10.346 34.784 7.692 42.983-5.279 122.112-25.646 137.871-29.953.682-1.14 3.095-6.561 2.399-25.334-.258-6.982-.869-13.662-1.333-18.014l-58.192-6.466zM197.997 754.56a6.502 6.502 0 0 1-6.35-5.143l-12.631-59.116a6.5 6.5 0 0 1 6.357-7.858h120.758c1.869 0 3.869.009 5.981.019 24.333.109 65.068.291 88.278-13.243a6.5 6.5 0 0 1 6.548 11.23c-26.273 15.319-69.222 15.129-94.884 15.012-2.092-.009-4.072-.018-5.923-.018H193.409l10.952 51.257a6.5 6.5 0 0 1-6.363 7.86z"/><path d="M82.417 754.101c-11.915 0-16.326-3.076-18.726-6.542-2.384-3.443-5.123-10.657 3.318-20.277 3.549-4.045 8.275-7.761 12.737-11.112-12.856 1.962-27.659 9.591-40.167 16.037-7.616 3.926-14.194 7.316-19.744 9.191-10.961 3.703-15.881-.077-18.079-3.9-1.654-2.879-2.984-7.71.079-14.379 9.273-20.194 57.734-48.916 94.278-55.876 44.132-8.403 90.283 14.92 92.226 15.917a6.5 6.5 0 0 1-5.932 11.568c-.438-.224-44.19-22.276-83.862-14.715-34.69 6.607-77.937 33.375-84.896 48.531a8.966 8.966 0 0 0-.491 1.298c4.273-.846 13.493-5.598 20.465-9.191 18.544-9.558 41.624-21.452 61.044-16.979 4.951 1.141 6.195 4.645 6.5 6.098 1.207 5.751-3.577 9.314-11.503 15.218-3.92 2.919-8.362 6.228-11.587 9.482-3.653 3.687-3.792 5.382-3.796 5.516 1.022.595 8.622 3.813 44.043-4.197 20.167-4.561 39.019-10.452 39.208-10.511a6.5 6.5 0 0 1 3.89 12.404c-.841.264-20.854 6.518-42.355 11.261-16.879 3.723-28.515 5.158-36.65 5.158zm720.644 82.311a6.502 6.502 0 0 1-2.498-12.504c3.258-1.353 80.834-33.05 171.151-25.407a6.501 6.501 0 0 1-1.096 12.954c-87.051-7.368-164.301 24.141-165.071 24.46a6.483 6.483 0 0 1-2.486.497z"/></svg></g><g transform="translate(1210.0 790.0) rotate(0.0 478.0 436.0) scale(1.9982776351763754 1.9996743649543307)"><svg width="478.412" height="436.071" viewBox="0 0 478.412 436.071"><path d="M465.216 42.491c-23.495-54.568-97.768-40.926-128.842 0l34.863 153.853s-22.902 125.112-56.842 147.032c-36.379 23.495-179.621 14.841-179.621 14.841l-8.203 63.094c43.243 6.489 151.232 14.853 230.787-.145 92.463-17.432 131.353-324.105 107.858-378.674Z" fill="#768292"/><path d="M57.57 293.892c54.273 5.719 85.351 64.324 85.351 64.324l-8.203 63.094c-28.934 4.297-63.795-58.23-72.133-55.198s-48.506 18.189-48.506 18.189c-12.126 4.926-17.811-19.85-6.821-46.114 10.989-26.265 37.547-45.64 50.312-44.295Z" fill="#fff"/><path d="M252.965 436.046c-62.918 0-119.5-7.147-135.446-11.354-11.648-3.073-24.729-18.624-37.378-33.663-5.718-6.797-13.383-15.911-16.887-18.239-10.745 3.958-46.5 17.45-46.88 17.593a6.5 6.5 0 1 1-4.589-12.163c1.642-.619 40.3-15.206 48.58-18.217 8.171-2.966 15.826 6.133 29.726 22.658 9.74 11.58 23.079 27.438 30.745 29.46 24.212 6.386 144.904 19.701 235.319 2.655 18.546-3.496 36.19-20.756 52.44-51.3 22.216-41.757 40.581-107.314 50.385-179.863 8.428-62.367 8.538-119.341.266-138.553-9.929-23.06-28.398-29.9-42.144-31.577-26.798-3.272-58.577 10.582-75.552 32.938a6.5 6.5 0 1 1-10.353-7.861C351.103 12.342 387.08-3.278 418.677.58c24.21 2.954 42.858 16.925 52.509 39.341 9.4 21.832 9.665 78.918.676 145.434-10.002 74.016-28.88 141.165-51.792 184.229-18.196 34.201-38.891 53.705-61.509 57.969-33.161 6.251-70.377 8.493-105.597 8.493Z"/><path d="M197.593 366.295c-29.427 0-52.8-1.446-55.088-1.592a6.497 6.497 0 0 1-5.294-3.381c-.33-.603-33.752-60.773-83.812-61.468a6.5 6.5 0 0 1 .089-13h.092c51.128.71 85.095 51.579 93.217 65.084 39.523 2.266 136.557 3.745 164.071-14.024 25.893-16.722 47.741-108.708 53.975-142.742a6.5 6.5 0 0 1 12.787 2.341c-.058.316-5.901 32.003-15.849 65.953-13.68 46.685-28.436 75.407-43.86 85.368-22.334 14.424-77.688 17.459-120.328 17.459ZM6.495 349.119a6.5 6.5 0 0 1-1.591-12.802c2.14-.542 52.69-13.215 75.924-7.596a6.5 6.5 0 1 1-3.056 12.636c-16.714-4.042-55.963 4.088-69.676 7.562a6.504 6.504 0 0 1-1.601.201Z"/><path d="M134.727 427.811a6.5 6.5 0 0 1-6.454-7.339l8.203-63.094a6.5 6.5 0 0 1 7.284-5.608 6.5 6.5 0 0 1 5.608 7.284l-8.203 63.094a6.502 6.502 0 0 1-6.438 5.663Z"/></svg></g><g transform="translate(334.0 772.0) rotate(0.0 137.0 110.0) scale(1.9632007336925368 1.9763733548937699)"><svg width="139.568" height="111.315" viewBox="0 0 139.568 111.315"><path d="M65.569 6.5c32.624 0 59.07 20.105 59.07 44.905 0 7.785-2.609 15.107-7.194 21.49l.004-.003 15.619 31.923-39.332-13.929c-8.373 3.459-17.968 5.425-28.168 5.425-32.623 0-59.069-20.105-59.069-44.905S32.945 6.501 65.568 6.501z" fill="#fff"/><path d="M133.068 111.316a6.479 6.479 0 0 1-2.169-.374l-37.045-13.12c-8.769 3.269-18.491 4.988-28.284 4.988C29.414 102.811 0 79.751 0 51.405S29.414 0 65.569 0s65.57 23.061 65.57 51.405c0 7.614-2.142 15.13-6.226 21.952l13.994 28.601a6.5 6.5 0 0 1-5.839 9.357zm-39.331-26.93c.733 0 1.467.124 2.17.373l24.327 8.615-8.528-17.429a6.5 6.5 0 0 1 .459-6.842c3.963-5.518 5.973-11.473 5.973-17.698C118.138 30.228 94.555 13 65.568 13S13 30.229 13 51.405 36.583 89.81 65.569 89.81c8.995 0 17.876-1.706 25.686-4.932a6.502 6.502 0 0 1 2.482-.493z"/></svg></g><g transform="translate(394.0 1058.0) rotate(0.0 518.0 288.0) scale(1.9980097046185654 1.9939489189058204)"><svg width="518.516" height="288.874" viewBox="0 0 518.516 288.874"><path d="M394.542 282.374H91.384L6.5 6.5h303.158z"/><path d="M394.542 288.874H91.384a6.498 6.498 0 0 1-6.212-4.588L.288 8.412A6.501 6.501 0 0 1 6.5 0h303.158a6.498 6.498 0 0 1 6.212 4.588l84.884 275.874a6.496 6.496 0 0 1-6.213 8.411zm-298.357-13h289.556L304.857 13H15.301z"/><path d="M512.016 288.874H380.9a6.5 6.5 0 1 1 0-13h131.116a6.5 6.5 0 1 1 0 13z"/><ellipse cx="192.311" cy="141.407" fill="#fff" rx="19.453" ry="29.811" transform="matrix(.95725389 -.289249 .289249 .95725389 -32.681 61.67)"/></svg></g><g transform="translate(152.0 1614.0) rotate(0.0 976.0 635.0) scale(1.993227926430284 1.9917257127084647)"><svg width="979.316" height="637.638" viewBox="0 0 979.316 637.638"><path d="M64.479 637.637c-5.616 0-10.169-4.553-10.169-10.169V158.079c0-5.616 4.553-10.169 10.169-10.169s10.169 4.553 10.169 10.169v469.389c0 5.616-4.553 10.169-10.169 10.169zm850.358 0c-5.616 0-10.169-4.553-10.169-10.169V158.079c0-5.616 4.553-10.169 10.169-10.169s10.169 4.553 10.169 10.169v469.389c0 5.616-4.553 10.169-10.169 10.169z"/><path d="M6.5 6.5h966.316v151.579H6.5z" fill="#fff"/><path d="M972.816 164.579H6.5a6.5 6.5 0 0 1-6.5-6.5V6.5A6.5 6.5 0 0 1 6.5 0h966.316a6.5 6.5 0 0 1 6.5 6.5v151.579a6.5 6.5 0 0 1-6.5 6.5zM13 151.579h953.316V13H13z"/></svg></g></svg>