<svg xmlns="http://www.w3.org/2000/svg" viewBox="0 0 2625 3000" width="2625" height="3000"><g transform="translate(150.0 135.0) rotate(0.0 1168.125 1370.625) scale(3.755564021817235 3.750200079073986)"><svg width="622.077" height="730.961" viewBox="0 0 622.077 730.961"><g fill="#768292"><path d="M196.285 378.453c-30.564-10.858-86.93 51.032-109.179 118.737s-35.395 194.02 13.621 207.157c49.015 13.138 84.762-104.974 100.826-157.542 17.467-57.162 33.133-154.71-5.267-168.352zm102.004-62.4h75.221v84.402h-75.221z"/><path d="M166.81 384.41c34.743-31.22 131.48-29.704 131.48-14.546s75.221 19.438 75.221 3.656 58.426-32.245 87.777-25.512c44.665 10.247 125.76 243.161 56.791 294.698-68.968 51.537-132.915 61.641-200.842 61.641s-164.82-18.231-182.833-60.069c-23.495-54.568 7.559-237.541 32.406-259.869z"/></g><path d="M256.984 102.21c3.306 38.446-4.168 83.368-31.453 146.274-25.031 57.711 67.958 140.842 165.979 91.326 86.846-43.871 106.605-197.811 79.829-254.653-11.984-25.441-55.553-54.754-101.808-58.737-57.09-4.916-117.083 23.036-112.547 75.789z" fill="#fff"/><path d="M240.542 55.337c5.881 49.641 97.158 106.509 142.632 96.834 45.474-9.676 53.432-44.918 44.337-72.202s-39.789-18.03-32.968 9.174 30.695 74.952 73.895 89.731c0 0-80.68 196.345-26.888 228.909 53.793 32.564 87.825-2.927 106.43-37.855s46.362-181.219 0-267.791C501.405 15.168 412.573-9.842 363.208 19.716c-74.825-46.232-127.066-1.516-122.666 35.62z" fill="#6e6e6e"/><ellipse cx="290.711" cy="180.118" rx="14.454" ry="11.873" transform="matrix(.24495205 -.96953519 .96953519 .24495205 44.868 417.85)"/><ellipse cx="379.304" cy="205.634" rx="14.454" ry="11.873" transform="matrix(.24495205 -.96953519 .96953519 .24495205 87.021 523.01)"/><path d="M230.838 245.133c-.655 0-1.32-.1-1.978-.31a6.5 6.5 0 0 1-4.216-8.168c2.595-8.131 5.792-16.358 9.178-25.069 10.124-26.046 21.597-55.567 19.468-91.444a6.5 6.5 0 0 1 6.104-6.874 6.49 6.49 0 0 1 6.874 6.104c2.297 38.711-9.724 69.638-20.329 96.924-3.31 8.518-6.437 16.563-8.91 24.312a6.503 6.503 0 0 1-6.191 4.526zm237.599-59.758a6.474 6.474 0 0 1-2.104-.352c-21.218-7.258-41.166-21.847-56.168-41.079a129.473 129.473 0 0 1-4.446-6.05c-6.469 3.945-14.669 7.232-25.062 9.443-47.954 10.201-94.409-26.829-96.363-28.411a6.5 6.5 0 0 1 8.174-10.109c.432.348 43.652 34.702 85.484 25.804 8.836-1.88 15.669-4.586 20.95-7.809-7.012-12.943-10.859-26.063-10.859-37.671 0-18.82 10.597-28.844 21.065-29.019 9.668-.156 19.734 7.953 20.353 26.449l.01.291c.303 9.04.94 28.032-13.486 42.907 12.498 18.315 31.896 35.201 54.558 42.953a6.5 6.5 0 0 1-2.103 12.652zM409.382 73.121h-.057c-3.439.057-8.282 5.065-8.282 16.021 0 8.741 2.849 18.777 7.964 28.873 8.152-10.37 7.742-22.622 7.47-30.716l-.01-.293c-.305-9.135-3.785-13.885-7.085-13.885z"/><path d="M497.994 409.897a6.502 6.502 0 0 1-2.136-12.641c58.845-20.469 87.704-130.359 65.699-250.175-10.072-54.847-44.333-98.701-93.996-120.318-36.741-15.991-77.271-16.621-100.857-1.567a6.5 6.5 0 1 1-6.994-10.958c27.499-17.552 71.87-17.314 113.039.605 53.698 23.373 90.728 70.715 101.594 129.889 11.028 60.049 10.009 119.928-2.869 168.604-13.413 50.696-38.75 84.86-71.345 96.198a6.486 6.486 0 0 1-2.135.363zM322.309 710.812c-12.793 0-24.329-.449-33.869-1.025-57.07-3.448-106.405-14.725-121.13-23.636a6.5 6.5 0 0 1 6.73-11.122c13.087 7.919 60.846 18.499 115.184 21.782 38.794 2.345 111.659 2.589 163.784-22.095a6.501 6.501 0 0 1 5.565 11.749c-41.704 19.75-95.367 24.348-136.263 24.348z"/><path d="M41.363 497.19 6.5 243.295l146.274 68.211 165.11-58.561 36.379 252.379-185.952 52.291z" fill="#FFC869"/><path d="M168.31 564.115a6.49 6.49 0 0 1-2.793-.631L38.57 503.059a6.498 6.498 0 0 1-3.646-4.985L.06 244.18a6.501 6.501 0 0 1 9.187-6.776l143.862 67.086 162.602-57.671a6.5 6.5 0 0 1 8.607 5.199l36.379 252.379a6.5 6.5 0 0 1-4.674 7.185l-185.952 52.291a6.51 6.51 0 0 1-1.76.243zM47.326 492.829l121.575 57.868 178.116-50.087-34.434-238.887-157.635 55.909a6.504 6.504 0 0 1-4.92-.235l-135.466-63.17z"/><path d="M530.192 381.566c85.385 83.792 131.87 324.901 14.414 341.856-60.379 8.716-174.87-288.877-137.942-354.063 28.935-51.075 109.249-1.805 123.528 12.208zm-377.066 195.01c-8.373 16.366-21.843 30.808-31.678 41.877-19.717 22.192-60.379 81.095-10.358 88.674s103.608-68.771 109.466-110.457z" fill="#768292"/><path d="M220.555 596.67c2.923-20.801 5.482-53.876 19.403-71.222-4.455-31.7-49.242-58.551-59.937-48.801-23.641 21.553-18.225 68.946-19.777 78.973-1.121 7.241-3.693 14.259-7.119 20.956z" fill="#fff"/><path d="M505.953 590.411c-14.653-15.916-78.442-82.796-89.33-216.892l-53.415 2.762c-.619 26.577 3.85 62.903 12.466 101.335 15.3 68.247 71.163 259.069 168.932 245.806 22.304-3.026-24-117.095-38.653-133.011z" fill="#768292"/><path d="M416.623 373.519c-.505-6.218 14.046-26.898 30.214-35.993 17.631-9.917 16.978-57.095 15.86-74.746-1.234-19.478-56.705-19.28-56.786-4.911-.248 43.79-15.916 65.384-31.832 77.89-6.916 5.434-10.395 20.101-10.871 40.523l53.415-2.762z" fill="#fff"/><path d="M531.572 730.98c-42.533 0-79.876-32.098-111.174-95.648-29.421-59.741-45.714-132.413-51.068-156.294-7.656-34.152-12.144-67.188-12.635-93.023-.558-29.331 3.939-47.959 13.368-55.367 20.314-15.962 29.915-39.732 29.348-72.667a6.5 6.5 0 0 1 6.387-6.611c3.574-.05 6.549 2.798 6.611 6.387.641 37.28-10.583 64.466-34.314 83.112-11.041 8.675-12.593 61.665 3.921 135.325 37.757 168.417 93.627 251.69 161.562 240.809 28.868-4.622 48.575-24.211 58.573-58.222 11.221-38.168 8.788-91.428-6.676-146.123-15.37-54.361-40.745-100.378-69.621-126.252a6.5 6.5 0 0 1 8.675-9.682c30.661 27.473 57.434 75.729 73.455 132.397 16.112 56.986 18.531 112.872 6.639 153.326-11.371 38.682-35.228 61.985-68.99 67.392a88.85 88.85 0 0 1-14.061 1.14z"/><path d="M416.615 341.123a6.5 6.5 0 0 1-.964-12.928c11.85-1.794 15.173-22.062 16.099-33.983 1.378-17.75-.84-35.336-.862-35.512a6.5 6.5 0 0 1 5.616-7.276c3.554-.455 6.817 2.053 7.277 5.613 1.039 8.036 9.125 78.667-26.183 84.013-.33.05-.658.074-.981.074z"/><path d="M446.843 341.123a6.5 6.5 0 0 1-3.1-12.218c14.914-8.073 15.236-47.284 11.936-70.104a6.5 6.5 0 0 1 5.5-7.364 6.496 6.496 0 0 1 7.365 5.497c1.011 6.958 9.082 68.414-18.613 83.404a6.472 6.472 0 0 1-3.088.785zm59.114 255.789a6.488 6.488 0 0 1-5.157-2.538c-4.124-5.36-8.351-10.563-12.827-16.071-31.627-38.921-67.4-82.951-77.318-197.966l-47.112 2.436a6.495 6.495 0 0 1-6.827-6.156 6.499 6.499 0 0 1 6.156-6.827l53.415-2.762c3.521-.189 6.548 2.479 6.816 5.997 8.824 115.693 43.959 158.931 74.958 197.08 4.532 5.577 8.813 10.845 13.042 16.343a6.5 6.5 0 0 1-1.189 9.115 6.469 6.469 0 0 1-3.958 1.349zm-362.344 0a6.501 6.501 0 0 1-5.43-10.066c13.194-20.113 17.519-32.114 17.138-47.559-.8-32.494 3.974-41.743 19.187-66.084a6.5 6.5 0 1 1 11.024 6.89c-14.528 23.245-17.931 29.838-17.215 58.875.509 20.671-6.678 35.823-19.264 55.01a6.496 6.496 0 0 1-5.441 2.936zm40.158-53.703c-3.548 0-6.446-2.829-6.498-6.384-.017-1.16-.092-28.729 28.238-56.697 2.554-2.523 6.67-2.496 9.192.059s2.496 6.67-.059 9.192c-24.149 23.841-24.374 46.348-24.372 47.294.009 3.574-2.87 6.505-6.444 6.536zm30.069-.268.002-.1-13-.095c.014-1.894.791-19.283 23.515-46.151a6.5 6.5 0 1 1 9.926 8.394c-19.66 23.245-20.438 37.807-20.443 37.952z"/><path d="M117.708 714.119c-2.566 0-5.099-.188-7.592-.565-12.825-1.943-23.482-9.001-31.677-20.978-24.35-35.585-20.495-106.595-12.345-142.996a6.497 6.497 0 0 1 7.763-4.923 6.5 6.5 0 0 1 4.923 7.763c-8.24 36.804-10.464 102.341 10.388 132.814 6.162 9.006 13.651 14.065 22.896 15.465 16.765 2.543 33.235-6.843 44.099-15.163 31.54-24.154 55.858-67.892 58.783-93.588.411-3.612.784-7.109 1.145-10.492 2.807-26.339 5.024-47.144 19.404-60.733a6.5 6.5 0 1 1 8.93 9.448c-10.891 10.292-12.785 28.065-15.407 52.663-.364 3.412-.74 6.94-1.154 10.583-3.213 28.23-28.518 75.422-63.796 102.439-15.718 12.037-31.586 18.26-46.357 18.26z"/></svg></g></svg>